<svg xmlns="http://www.w3.org/2000/svg" viewBox="0 0 128 128">
  <path fill="#2C8EBB" d="M64 0C28.7 0 0 28.7 0 64s28.7 64 64 64 64-28.7 64-64S99.3 0 64 0zm0 6.4c31.8 0 57.6 25.8 57.6 57.6 0 31.8-25.8 57.6-57.6 57.6-31.8 0-57.6-25.8-57.6-57.6C6.4 32.2 32.2 6.4 64 6.4z"/>
  <path fill="#2C8EBB" d="M38.4 38.4v51.2h51.2V38.4H38.4zm6.4 6.4h38.4v38.4H44.8V44.8z"/>
  <path fill="#2C8EBB" d="M22.4 22.4h12.8v12.8H22.4V22.4zm70.4 0h12.8v12.8H92.8V22.4zm0 70.4h12.8v12.8H92.8V92.8zm-70.4 0h12.8v12.8H22.4V92.8z"/>
  <path fill="#2C8EBB" d="M51.2 51.2h25.6v6.4H51.2v-6.4zm0 12.8h25.6v6.4H51.2V64zm0 12.8h25.6v6.4H51.2v-6.4z"/>
</svg>
