<svg xmlns="http://www.w3.org/2000/svg" viewBox="0 0 128 128">
  <path fill="#333333" d="M40.3 77.8l-29.7-26 29.7-26c2-1.7 2.1-4.7.4-6.6-1.7-2-4.7-2.1-6.6-.4L.9 49.3c-1 .8-1.5 2-1.5 3.3 0 1.2.5 2.4 1.5 3.3l33.1 30.4c.9.8 1.9 1.2 3 1.2 1.3 0 2.6-.6 3.5-1.7 1.8-1.9 1.7-4.9-.2-6.7zM72.8 45.2c-2.5-.7-5.1.8-5.8 3.3L55.7 95.7c-.7 2.5.8 5.1 3.3 5.8.4.1.8.2 1.2.2 2.1 0 4-1.4 4.5-3.5L76.1 51c.8-2.5-.7-5.1-3.3-5.8zM127.9 52.6l-33.1-30.4c-2-1.8-5-1.6-6.6.4-1.7 1.9-1.5 4.9.4 6.6l29.7 26-29.7 26c-2 1.7-2.1 4.7-.4 6.6 1 1.1 2.2 1.7 3.5 1.7 1.1 0 2.2-.4 3-1.2l33.1-30.4c.9-.8 1.5-2 1.5-3.3 0-1.1-.5-2.3-1.4-3z"></path>
</svg>
