<svg xmlns="http://www.w3.org/2000/svg" viewBox="0 0 128 128">
  <path fill="#00599C" d="M117.5 33.5l.3-.2c-.6-1.1-1.5-2.1-2.4-2.6L67.1 2.9c-.8-.5-1.9-.7-3.1-.7-1.2 0-2.3.3-3.1.7l-48 27.9c-1.7 1-3.4 3.5-3.4 5.6v55.7c0 2.1 1.7 4.6 3.4 5.6l48.2 27.9c.8.5 1.9.7 3.1.7 1.2 0 2.3-.3 3.1-.7l48-27.9c1.7-1 3.4-3.5 3.4-5.6V36.1c.1-.8-.2-1.7-.5-2.6zM64 88c-13.3 0-24-10.7-24-24s10.7-24 24-24 24 10.7 24 24c0 13.2-10.7 24-24 24zm32-53.4v-.3c0-1-.4-1.6-1.3-2.2-.6-.4-1.3-.6-2.1-.6h-.2l-.1.1-1.2.4v.2h.1l.7.2c.9.5 1.1.7 1.1 1.9v.1c-.1.2-.1.3 0 .3V35h.3C96 35 96 34.7 96 34.6z"></path>
  <path fill="#004482" d="M57 42h-7v7h-7v7h7v7h7v-7h7v-7h-7z"></path>
  <path fill="#659AD2" d="M58 42v7h7v-7h-7zm7 7v7h7v-7h-7z"></path>
  <path fill="#00599C" d="M117.5 33.5l-.3.2c.3.9.6 1.8.6 2.6v54.9c0 2.1-1.7 4.6-3.4 5.6l-48 27.9c-.8.5-1.9.7-3.1.7-1.2 0-2.3-.3-3.1-.7l-48.2-28c-1.7-1-3.4-3.5-3.4-5.6V36.1c0-2.1 1.7-4.6 3.4-5.6L61.9 3.1c.8-.5 1.9-.7 3.1-.7s2.3.3 3.1.7l48.2 27.8c.9.5 1.8 1.6 2.4 2.6zM64 42c-12.2 0-22 9.8-22 22s9.8 22 22 22 22-9.8 22-22-9.8-22-22-22zm28 44c0 1.1-.9 2-2 2h-4c-1.1 0-2-.9-2-2v-4c0-1.1.9-2 2-2h4c1.1 0 2 .9 2 2v4zm0-16c0 1.1-.9 2-2 2h-4c-1.1 0-2-.9-2-2v-4c0-1.1.9-2 2-2h4c1.1 0 2 .9 2 2v4z"></path>
</svg>
