<svg xmlns="http://www.w3.org/2000/svg" viewBox="0 0 128 128">
  <path fill="#099CEC" d="M124.8 52.1c-4.3-2.5-10-2.8-14.8-1.4-.6-5.2-4-9.7-8-12.9l-1.6-1.3-1.4 1.6c-2.7 3.1-3.5 8.3-3.1 12.3.3 2.9 1.2 5.9 3 8.3-1.4.8-2.9 1.9-4.3 2.4-2.8 1-5.9 2-8.9 2H79V64h-1.6V64H73V64h-1.4v-.1H69V64h-1.6v-.1h-12V64H41.1c-.4 0-.7.3-.9.6-1.4 2.9-1.3 6.6-.4 9.9.2.8.6 1.6 1 2.4-3.8.2-6.8 2.3-8.3 5.1-1.6 2.9-1.5 6.7-.1 10 1.3 3.4 4.6 6 9.1 5.9l.9-.1c1.3 1.1 2.7 2 3.9 2.9 5.8 4 12.2 6 19 6 17.4 0 30.5-7.2 37.1-20.3 4.3-.4 8.6-2.2 10.8-6.2 1.1-2 1.5-4.4 1.2-6.6l-.1-.9 1-.6c1-.6 1.8-1.3 2.6-2.2 3.5-4.1 3.5-10.6.5-15.1zm-60.5 8c-1.7-1.9-3.2-4.1-4.1-6.6 2-.5 3.7-.7 5.1-.7 1.1 0 1.9.1 2.6.3-.8 2.5-2.1 4.9-3.6 7zm-37.4 24.8c-.1 0-.2.1-.3.1-2.4.5-4.2-.5-5-2.5-.8-1.9-.8-4.1.2-5.9 1-1.8 2.8-2.7 5.4-2.6-.5 3.9-.5 7.8-.3 10.9zm.9-14.8c-.1-.1-.1-.3-.2-.4-.9-1.9-1.3-4.2-1-6.5.2-1.9.9-3.5 2.2-4.5 9.2 2.2 13.8 9.7 14.3 12.2-2.2-.8-6.3-1.9-10.7-2.3-1.8-.3-3.5-1.2-4.6 1.5zm38.9 31.8c-7.7 0-14.8-2.9-18.8-8.1 1.7.1 3.1 0 4.2-.3 2.3-.6 4.2-2 5.2-4.2.9 0 1.7-.1 2.5-.2 12.5-1.7 20.5-6.9 24.5-12.4 2.1 4.8 2.3 10.7 0 16.1-2.6 6-7.7 9.1-17.6 9.1zm30.6-20.9c.1-.8.1-1.7.2-2.5.5-8-2.8-12.3-4.8-15.1 6.7.7 13.6 4.5 13.8 13.2 0 1.4-.3 2.5-.7 3.6-.4-1-1.1-1.9-2-2.6-3-2.5-5.4-1.3-6.5 3.4z" />
  <path fill="#099CEC" d="M40.3 67.7h3.8v3.5h-3.8zM45.6 67.7h3.8v3.5h-3.8zM50.9 67.7h3.8v3.5h-3.8zM50.9 62.5h3.8V66h-3.8zM45.6 62.5h3.8V66h-3.8zM40.3 62.5h3.8V66h-3.8zM35 67.7h3.8v3.5H35zM29.7 67.7h3.8v3.5h-3.8zM61.5 67.7h3.8v3.5h-3.8zM35 62.5h3.8V66H35zM29.7 62.5h3.8V66h-3.8zM56.2 67.7H60v3.5h-3.8zM56.2 62.5H60V66h-3.8zM61.5 62.5h3.8V66h-3.8zM67.1 64.1v7.3h3.8v.1h.9v-7.3h-4.7zM72.7 64.1v7.4h3.8v-7.3h-3.8zM40.3 57.2h3.8v3.8h-3.8zM45.6 57.2h3.8v3.8h-3.8zM50.9 57.2h3.8v3.8h-3.8zM40.3 52h3.8v3.8h-3.8zM34.9 52h3.8v3.8h-3.8zM45.6 52h3.8v3.8h-3.8z" />
</svg> 