<svg xmlns="http://www.w3.org/2000/svg" viewBox="0 0 100 100" fill="#E10098">
  <path d="M50 6.90308L87.323 28.4515V71.5484L50 93.0968L12.677 71.5484V28.4515L50 6.90308ZM16.8647 30.8693V69.1306L50 88.2612L83.1353 69.1306V30.8693L50 11.7387L16.8647 30.8693Z" />
  <path d="M50 0L92.388 24.5V73.5L50 98L7.612 73.5V24.5L50 0ZM85.4233 68.1371L50 88.4233L14.5767 68.1371V31.8629L50 11.5767L85.4233 31.8629V68.1371Z" />
  <path d="M50 11.5767L85.4233 31.8629V68.1371L50 88.4233L14.5767 68.1371V31.8629L50 11.5767ZM50 0L7.612 24.5V73.5L50 98L92.388 73.5V24.5L50 0Z" />
  <path d="M16.8647 30.8693L50 11.7387L83.1353 30.8693V69.1306L50 88.2612L16.8647 69.1306V30.8693ZM12.677 28.4515L50 6.90308L87.323 28.4515V71.5484L50 93.0968L12.677 71.5484V28.4515Z" />
</svg> 