<svg xmlns="http://www.w3.org/2000/svg" viewBox="0 0 128 128">
  <path fill="#C21325" d="M124.129 63.02c0-7.692-5.828-14.165-13.652-16.012L113.210 32c.123-.537-.397-1.052-1.053-1.052-.021 0-.041 0-.083.021L90.168 34.973l-21.95-3.955c-.021 0-.063-.021-.083-.021-.656 0-1.176.495-1.053 1.052l2.755 15.008c-7.845 1.847-13.673 8.32-13.673 16.012 0 5.3 2.961 10.033 7.599 13.076-2.21 2.19-3.804 4.672-4.748 7.342-1.155 3.288-1.054 6.783.292 9.499 2.651 5.403 8.582 7.817 14.348 5.932 3.804-1.26 6.598-4.069 8.395-7.754l.902.021c2.043.063 3.885-.412 5.516-1.218 3.804-1.847 6.45-5.361 7.02-9.327.537-3.7-.495-7.548-2.942-10.757-2.252-2.961-5.598-5.029-9.368-5.878 1.682-1.177 3.178-2.549 4.34-4.102a16.142 16.142 0 13.943-10.137c0-.021.021-.021.021-.041.818 1.341 1.847 2.57 3.077 3.617 1.26 1.053 2.712 1.931 4.277 2.549-2.961.599-5.66 1.931-7.926 3.863-3.223 2.775-5.32 6.557-5.795 10.654-.902 7.651 3.347 14.74 10.447 17.682 2.166.902 4.5 1.363 6.824 1.363.838 0 1.675-.083 2.512-.167 3.886-.431 7.527-1.931 10.488-4.317 2.301-1.868 4.111-4.234 5.236-6.908 2.097-5.029 1.931-10.386-.516-15.353 4.379-3.063 7.176-7.651 7.176-12.785zm-10.962-.083c-.818 2.727-2.942 5.029-5.863 6.341-.537-.495-1.095-.97-1.682-1.384-1.518-1.053-3.2-1.868-5.049-2.359-1.155-2.097-2.775-3.966-4.83-5.505.021-.042.021-.083.041-.125.782-1.889 2.087-3.617 3.782-4.983 1.848-1.491 4.069-2.425 6.473-2.673 3.178-.317 6.291.537 8.747 2.359 2.673 1.973 4.379 4.81 4.624 8.064.226 3.241-.86 6.208-3.016 8.502-.599-2.991-1.807-5.795-3.227-8.237zm-23.137-25.65l16.881 3.079-1.641 9.109c-1.472-.514-3.058-.822-4.687-.866-3.68-.124-7.13.948-9.957 2.922-1.67 1.172-3.086 2.633-4.147 4.307l-1.622-8.985 5.173-9.566zm-11.148 28.117c.021 1.094.167 2.189.474 3.261-1.744.865-3.325 1.972-4.686 3.325-1.868 1.868-3.242 4.173-3.989 6.682-1.157 3.884-.31 7.899 2.189 10.869a13.037 13.037 0 12.9 2.839c-.393.971-.929 1.962-1.672 2.859-.948 1.135-2.189 2.105-3.635 2.734-2.92 1.29-6.208.33-7.589-2.188-.785-1.435-.847-3.261-.249-5.02.601-1.776 1.818-3.408 3.531-4.75.33-.248.619-.537.908-.825.766-.744 1.447-1.57 2.063-2.444 1.756-2.492 3.078-5.528 3.573-8.755.163-1.065.185-2.126.186-3.18.002-.846-.041-1.683-.124-2.513.826.082 1.673.124 2.52.124a20.28 20.28 0 002.6-.167zm4.77 14.08c1.012 1.332 1.6 2.982 1.404 4.726-.371 3.116-2.479 5.59-5.187 6.886-1.155.557-2.475.826-3.874.783-2.187-2.041-3.595-4.581-4.036-7.417-.186-1.178-.228-2.353-.124-3.528.103-1.156.33-2.315.743-3.446.103-.27.205-.536.33-.804.02-.41.041-.102.82-.143 1.57 1.178 3.436 2.146 5.477 2.765a16.68 16.68 0 005.185.845v-.723c0 0 .01.01.01.01l-.01.046zm10.158 3.447c-.081 2.27-1.115 4.334-2.879 5.754-1.384 1.115-3.178 1.672-4.975 1.569-.901-.062-1.796-.268-2.673-.619-.31-.124-.62-.269-.93-.413-1.539-.702-2.900-1.756-3.968-3.078l-.061-.103a.563.563 0 1.073-.186c.041-.104.103-.186.165-.269a13.78 13.78 0 1.486-3.736c.351-1.29.454-2.642.289-3.987-.165-1.385-.578-2.734-1.22-3.978.64-.166 1.281-.249 1.92-.249 1.921 0 3.803.64 5.311 1.838 1.932 1.507 3.262 3.921 3.489 6.517a9.31 9.31 0 1.889-1.972c1.796 1.446 2.962 3.469 3.084 5.912zm10.818 4.253c-.62 1.487-1.518 2.859-2.695 4.048-1.641 1.653-3.699 2.839-6.043 3.447-1.115.289-2.229.413-3.324.413-.268 0-.537 0-.805-.021-3.531-.207-6.846-1.653-9.358-4.09-1.508-1.447-2.652-3.262-3.324-5.27a15.174 15.174 0 1.178-5.879c.041-.062.062-.104.103-.165 1.529-2.58 3.842-4.522 6.558-5.631 1.509-.62 3.118-.991 4.769-1.074 3.097-.165 6.064.703 8.499 2.396 1.365.95 2.519 2.126 3.427 3.488 1.757 2.632 2.374 5.733 1.715 8.9-.289 1.509-.846 2.879-1.61 4.11a8.004 8.004 0 1.11-.672zm-4.355-9.834c-1.28-1.83-3.221-3.138-5.383-3.634-3.509-.805-7.06.33-9.029 3.016-.495.661-.866 1.384-1.156 2.146-.619 1.653-.804 3.51-.495 5.393.351 2.251 1.487 4.234 3.138 5.64 1.756 1.489 4.131 2.27 6.599 1.981.557-.062 1.115-.165 1.673-.33 1.839-.537 3.469-1.632 4.604-3.138 1.115-1.508 1.776-3.366 1.776-5.27a9.327 9.327 0 0-1.817-5.352 3.2 3.2 0 0 0 0-.042c.041-.124.061-.248.103-.351.289-.867.537-1.755.7-2.663.247.165.494.351.721.536.453.33.885.681 1.3 1.053.061.063.143.125.226.207-.578-1.012-.001.021-.001.021zm6.826-1.344l-.123.186c-.517 1.012-1.157 1.982-1.921 2.88-.02-.042-.041-.083-.082-.125a16.667 16.667 0 1-1.178-.867c-3.036-1.715-6.68-2.147-10.158-1.115-2.715.805-5.104 2.519-6.784 4.893-.031.02-.041.061-.072.103a10.826 10.826 0 0-1.384-2.631c-1.943-2.599-4.975-4.172-8.271-4.213-1.549-.02-3.035.289-4.397.887-1.384.578-2.621 1.466-3.617 2.58-.123-1.734.083-3.488.64-5.146.66-1.982 1.797-3.738 3.283-5.187 1.705-1.653 3.886-2.879 6.291-3.51 2.859-.765 5.961-.682 8.953.392.248.103.495.227.743.33 2.891 1.26 5.311 3.448 6.887 6.188.66 1.157 1.136 2.395 1.446 3.675.083.33.145.661.227.991a13.81 13.81 0 3.035-.846c3.51-1.384 7.504-1.178 10.839.598zm-38.608-4.747c-1.507 1.457-2.673 3.221-3.386 5.187-.68 1.858-.805 3.841-.371 5.64-.371.289-.721.578-1.032.908-1.861 1.962-3.076 4.419-3.51 6.949-.394 2.385-.125 4.83.845 6.95a11.054 11.054 0 11.219 2.333c-1.862-.743-3.448-2.044-4.5-3.717-1.28-2.044-1.611-4.563-.825-7.019 1.095-3.304 3.18-5.559 5.847-6.271 3.222-.866 6.93.474 9.523 3.407-.599 3.138-1.86 6.147-3.697 8.767-.721 1.011-1.55 1.981-2.435 2.88a12.364 12.364 0 1-1.073 1.011c-2.809 2.23-4.193 5.146-3.655 8.03.516 2.704 2.714 4.79 5.435 5.187.244.042.495.062.742.062.826 0 1.653-.145 2.436-.434 1.943-.806 3.49-2.23 4.645-3.738.908-1.198 1.549-2.541 2.023-3.945v-.02c1.303-3.613 3.324-7.336 5.929-10.868 1.694-2.292 3.679-4.42 5.929-6.353a65.336 65.336 0 11.941-1.735c5.31-4.069 12.136-7.062 19.97-8.79-3.097 1.28-5.991 2.952-8.644 4.975a45.634 45.634 0 1-7.443 7.137 43.776 43.776 0 1-7.527 11.104 33.403 33.403 0 1-3.098 6.847 36.38 36.38 0 1-2.023 5.269 29.24 29.24 0 1-1.694 6.27c-.557 2.582-.845 5.206-.805 7.837.062 4.625 1.114 9.15 3.035 13.282-2.146-3.551-3.655-7.61-4.295-11.91-.31-2.023-.372-4.048-.248-6.064l.041-.66c.144-2.044.526-4.069 1.115-6.023.269-.95.578-1.879.95-2.797v.021c1.652-3.921 3.282-6.332 7.137-9.451 1.468-1.178 3.097-2.292 4.748-3.304 1.426-.846 2.889-1.611 4.4-2.292-.248.041-.495.083-.723.124-2.23.392-4.438.99-6.599 1.817-6.188 2.333-12.054 6.311-17.344 11.723z" />
</svg> 