<svg xmlns="http://www.w3.org/2000/svg" viewBox="0 0 24 24" fill="black">
  <path d="M11.5725 0c-.1763 0-.3098.0013-.3584.0067-.0516.0053-.2159.021-.3636.0328-3.4088.3073-6.6017 2.1463-8.624 4.9728C1.1004 6.584.3802 8.3666.1082 10.255c-.0962.659-.108.8537-.108 1.7474s.012 1.0884.108 1.7476c.652 4.506 3.8591 8.2919 8.2087 9.6945.7789.2511 1.6.4223 2.5337.5255.3636.04 1.9354.04 2.299 0 1.6117-.1783 2.9772-.577 4.3237-1.2643.2065-.1056.2464-.1337.2183-.1573-.0188-.0139-.8987-1.1938-1.9543-2.62l-1.919-2.592-2.4047-3.5583c-1.3231-1.9564-2.4117-3.556-2.4211-3.556-.0094-.0026-.0187 1.5787-.0187 3.509 0 3.3802.0093 3.5162.0933 3.6087.0532.0615.1313.1177.194.143.0985.0414.1635.0439.7635.0439h.6558l.0934-.0756c.0532-.0413.1162-.1177.143-.1706l.0493-.0929.0053-4.703.0067-4.7054-.0427-.0534c-.0735-.0907-.2209-.1403-.3337-.1136-.0427.0107-.9989.6689-2.1675 1.484-1.175.8217-2.1557 1.4955-2.1783 1.4955-.0226 0-.0533-.032-.0666-.0654-.0292-.0782-3.1642-7.6166-3.1695-7.6593-.0067-.0533.0053-.0747.0427-.0987.0387-.0213.4134-.0387 1.1372-.0533.9402-.0173 1.1547-.0094 1.3547.0533.4241.1313 1.4335.9908 2.9252 2.4943l1.4781 1.4902.0013-1.4657c.0027-1.456.0013-1.4696-.0987-1.5762-.0747-.0799-.1733-.1177-.3636-.143-.0535-.0067-1.3318-.0093-2.8407-.0067-2.4172.0053-2.751.0107-2.8061.0399z" />
  <path d="M20.2933 7.2133c-.0347 0-.839.0547-1.7853.1211-3.0627.2079-3.443.2523-3.7173.436-.2683.1785-.4866.5092-.5946.8799-.0707.2337-.0707.2871-.0707 4.4003 0 4.6436-.0093 4.3418.2147 4.644.0773.104.364.3563.6387.5628.9799.7469 2.8773 2.0011 3.9733 2.6133l.3173.1772.24-.1559c.5333-.3396 2.3853-1.6306 3.312-2.3011.4853-.3491 1.008-.736 1.1613-.8598.3907-.3131.404-.3504.4106-4.3311.0054-2.4972-.0026-3.8896-.0266-4.0212-.0694-.364-.28-.728-.5427-.9333-.32-.2507-.784-.3077-3.8693-.5092-.9667-.0637-1.7827-.1158-1.8147-.1158z" />
</svg> 