<svg xmlns="http://www.w3.org/2000/svg" viewBox="0 0 128 128">
  <path fill="#764ABC" d="M88.69 88.11c-9 18.4-24.76 30.78-45.91 34.85-14.43 2.76-29.45-.6-39.37-10.76-9.21-9.46-12-23.8-7.18-37.49 3.3-9.2 9.39-16.2 19.41-22.2 1.57-.95 1.5-3.56-1.74-2.86-15.67 3.43-26.76 14.62-30.36 29.48-4.91 20.11 4.06 40.71 22.66 51.17 14.87 8.13 32.87 8.07 49.8.27 15.2-7 29.35-18.19 38.76-33.25 1.49-2.41-1.1-5.3-4.07-3.21zM69.56 36.23C78.95 33.78 87.75 35.1 94 40.43c6.35 5.38 8.02 15.15 5.35 24.12-.45 1.52.9 3.93 2.88 2.34 7.4-5.9 10.7-16.25 8.36-27.68-2.43-11.73-11.64-19.27-25.54-19.88-13.16-.58-25.25 5.05-35.22 14.32-1.69 1.57.52 6 2.73 4.58zm25.16 29.16c6.3.84 11.7-1.38 15.55-5.74 4.71-5.33 4.77-15.03-2.54-21.61-2.18-1.958-4.16 1.754-1.24 3.33 5.73 3.96 7.42 10.1 4.72 15.48-2.14 4.27-6.99 7.13-14.56 6.326-1.22-.138-1.7 2.2.07 2.214z" />
</svg> 