<svg xmlns="http://www.w3.org/2000/svg" viewBox="0 0 128 128">
  <path fill="#B7410E" d="M62.271 10.88c-.189.11-.982 1.248-1.763 2.529-1.96 3.217-1.982 3.219-4.615.448-1.713-1.802-2.127-2.132-2.679-2.132-.359 0-.865.278-1.126.618-.423.548-.35.62 1.121 1.115.87.293 2.37 1.561 3.334 2.818 1.768 2.305 1.785 2.363 1.163 3.409-.419.705-1.195 1.341-2.046 1.682-1.653.662-3.332.293-4.512-.994-.881-.961-2.065-3.472-2.409-5.093-.228-1.071-.908-1.515-1.813-1.186-.868.314-.883.764-.098 2.858.881 2.341 3.028 5.53 4.339 6.451 1.347.948 3.661.775 5.394-.402 1.235-.836 2.384-2.472 2.384-3.398 0-.359.36-.976.8-1.372.44-.396 1.187-1.497 1.659-2.446.893-1.796 1.947-2.824 1.947-1.901 0 .232-.45 1.192-1 2.133-.55.941-1 1.864-1 2.052 0 .582 1.375 2.613 2.661 3.931 1.454 1.489 3.008 2.157 4.974 2.148 1.457-.006 1.803-.125 2.734-.934.923-.799 1.148-1.291 1.528-3.316.518-2.752.446-3.462-.374-3.676-.92-.24-1.491.62-1.854 2.78-.299 1.779-.416 2.13-1.09 3.281-1.244 2.125-3.281 2.229-5.235.268-1.24-1.24-1.753-2.254-1.753-3.453 0-1.332 1.416-4.322 2.673-5.647 1.024-1.082 1.049-.988-.446-1.643-1.895-.832-2.068-.839-3.102-.142zM93.456 19.785c-.75.187-1.624.786-1.944 1.33-.557.95-.657.961-2.36.258-.994-.411-1.889-.625-1.989-.474-.394.599.303 1.382 1.528 1.719.929.255 1.338.599 1.609 1.353.457 1.272.027 2.947-1.132 4.413-1.79 2.269-1.823 2.779-.235 3.584.88.446 1.278.457 1.788.049.313-.251.604-1.02.647-1.709.122-1.975 1.337-4.876 2.598-6.2.611-.642 1.321-1.167 1.578-1.167.257 0 .467-.124.467-.276 0-.151-.464-.717-1.032-1.257-1.069-1.017-1.111-1.02-2.523-.623zM62.217 23.631c-1.072.429-1.116.81-.153 1.318.88.464.881.467.139 1.021-.413.308-.831.831-.929 1.163-.175.595-.17.595.923-.068 1.242-.756 3.418-.863 4.45-.22.986.616.735 1.396-.648 2.012-.627.28-1.142.581-1.142.668 0 .087.281.158.624.158.882 0 2.958 2.149 2.958 3.059 0 .699-1.634 3.013-2.552 3.604-1.335.86-3.512.705-4.505-.318-1.173-1.208-2.372-3.812-1.997-4.336.258-.363.234-.493-.114-.602-.636-.199-1.189.562-1.27 1.751-.088 1.273 1.545 4.475 2.827 5.555 1.576 1.328 4.573 1.276 6.63-.115 2.028-1.372 3.764-3.96 3.522-5.247-.35-1.85-2.083-3.558-4.102-4.041-.481-.115-.875-.335-.875-.488 0-.153.377-.399.837-.547 1.73-.555 2.655-2.049 2.046-3.316-.483-1.006-2.32-1.626-4.144-1.396-.755.095-1.655.267-2 .385zM43.58 26.557c-2.144.644-2.19.659-2.584.842-.22.102-1.153.397-2.073.655-1.387.391-1.717.608-1.872 1.23-.225.9.055 1.404.636 1.147.239-.106.435-.098.435.017 0 .116.245.05.543-.147.33-.218 1.217-.338 2.216-.3 1.304.05 1.704.212 2.186.885.312.437.567 1.017.567 1.289 0 .659-1.172 2.487-1.936 3.021-.851.594-3.021.759-4.336.329-1.107-.363-2.199-1.412-2.199-2.113 0-.26-.125-.654-.277-.875-.152-.221-.327-.786-.388-1.256-.06-.469-.29-1.006-.51-1.193-.642-.546-1.89.381-1.535 1.142.066.142.328.258.584.258s.548.358.651.795c.103.437.37 1.011.592 1.276.529.632 2.393 1.741 3.504 2.087 1.255.391 3.426-.434 4.547-1.724.647-.748 1.347-1.36 1.554-1.36.782 0 .643-1.097-.271-2.134-.456-.518-1.245-1.058-1.753-1.2-.509-.143-1.294-.428-1.744-.633-.451-.206-1.134-.417-1.518-.47-.384-.054-.868-.225-1.074-.381-.644-.489.111-.557 3.339-.302 2.77.219 3.163.187 3.561-.288.397-.475.385-.562-.154-1.087-.33-.322-.692-.587-.804-.587-.113 0-1.118.302-2.234.67zM78.584 26.592c-2.057.577-3.31 2.322-3.235 4.514.039 1.122.241 1.666.95 2.557.902 1.134 2.159 1.572 3.765 1.314 2.34-.377 3.239-2.128 2.667-5.198-.361-1.941-2.029-3.439-3.737-3.356-.34.017-1.005.093-1.479.17zm2.053 1.662c.815.416 1.342 1.916 1.244 3.553-.058.972-.232 1.334-.89 1.855-.96.762-1.731.855-2.726.33-1.699-.9-1.878-3.999-.295-5.122.832-.59 1.64-.647 2.667-.187zM16.6 29.742c-2.022.432-2.278.865-.896 1.532.826.399.882.521.882 1.922 0 .825.128 1.707.285 1.96.301.489 1.378.377 1.378-.143 0-.16.145-.214.322-.121.177.094.6.016.94-.173.706-.39 1.481-.189 1.481.384 0 .229.27.346.693.3.377-.04.878.026 1.113.148 1.031.531.264.648-4.541.692l-4.88.044-.428.835c-.318.622-.348.925-.112 1.153.365.352 13.101.373 13.101.022 0-.131-.256-.611-.57-1.066l-.569-.828-1.551-.097c-1.277-.08-1.5-.165-1.283-.491.144-.217.262-.546.262-.73 0-.226.304-.297.889-.206.497.077.971.038 1.053-.088.082-.125.386-.09.676.078.678.392 1.359.043 1.359-.696 0-.733-1.033-1.304-3.058-1.691-.866-.166-1.651-.483-1.835-.742-.327-.463-.32-.47.225-.245 1.017.423 3.098.428 3.7.01.722-.501.722-1.292 0-1.793-.591-.409-6.523-.964-8.236-.77zM113.146 31.393c-.136.14-.247.492-.247.781 0 .29-.138.529-.306.53-.169.002-.55.115-.847.252-.297.137-.839.325-1.204.419-.366.094-1.027.502-1.47.906-.915.834-1.175 1.586-.857 2.483.326.925.865 1.35 2.286 1.81 1.368.442 3.411 1.733 3.411 2.158 0 .348-1.899 2.01-2.952 2.579-1.055.57-3.34.903-4.628.675-2.339-.413-4.626-3.1-4.179-4.908.083-.332-.013-.705-.22-.853-.466-.333-.901.049-1.266 1.111-.391 1.138-.053 2.453.929 3.609 1.825 2.148 6.144 2.72 9.106 1.208 2.224-1.136 3.479-2.494 3.474-3.749-.004-.932-1.051-2.208-2.685-3.277-1.757-1.147-1.804-1.24-.845-1.67.761-.341.883-.592.916-1.886.044-1.7-.5-2.568-1.416-2.262zM88.12 31.536c-.85.276-1.112 2.353-.519 4.117.409 1.217 2.292 2.818 3.78 3.217 1.167.313 3.892.082 4.027-.341.14-.442-.358-.785-.923-.633-.282.075-1.21.076-2.062.002-1.559-.135-3.726-1.35-4.196-2.347-.287-.609-1.107-3.918-.954-3.847.28.129.829.248.631-.174-.224-.477-.431-.141-.784.006zM25.872 33.998c-1.542.285-2.678 1.419-2.954 2.951-.249 1.38.071 2.287 1.167 3.292 2.021 1.86 5.517 1.336 6.867-1.03.591-1.035.591-2.76.001-3.795-1.196-2.102-2.857-2.677-5.081-1.418zm3.504 1.636c1.39 1.39.594 4.094-1.318 4.488-1.137.235-2.034-.082-2.657-.934-.593-.811-.594-2.032-.003-2.843 1.04-1.43 2.744-1.766 3.978-.711zM99.371 39.038c-.22.145-.4.58-.4.966 0 .725-.063.738-2.075.435-.734-.11-1.258-.061-1.73.16-.885.415-.901 1.622-.026 1.956.336.129.61.339.61.467 0 .128.318.387.707.576 1.694.82 1.608 2.968-.138 3.472-.937.27-2.759-.271-4.742-1.41-.661-.38-1.431-.689-1.71-.686-.619.007-1.03.813-.671 1.316.343.48 3.994 1.913 5.307 2.079 1.2.152 2.69-.332 3.457-1.124.876-.905 1.018-2.592.299-3.555-.306-.41-.557-.911-.557-1.115 0-.203-.145-.469-.321-.59-.328-.225-.321-.391.038-.867.241-.319.268-.56.119-1.04-.215-.691-.672-.957-1.167-.678z"/>
</svg>
