<svg xmlns="http://www.w3.org/2000/svg" viewBox="0 0 128 128">
  <path fill="#D33833" d="M64 0L16 20.7v40.7c0 35.5 20.3 68.7 48 76.6 27.7-7.9 48-41.1 48-76.6V20.7L64 0zm0 9.6l39.4 17.1v34.7c0 30.1-16.9 58.6-39.4 65.4-22.5-6.8-39.4-35.3-39.4-65.4V26.7L64 9.6z"></path>
  <path fill="#D33833" d="M64 22.7l-32 13.9v24.5c0 23.1 13.6 44.6 32 51.5 18.4-6.9 32-28.4 32-51.5V36.6l-32-13.9zm0 7.8l24 10.4v20.2c0 17.6-11 34.4-24 39.2-13-4.8-24-21.6-24-39.2V40.9l24-10.4z"></path>
  <circle fill="#D33833" cx="64" cy="64" r="12"></circle>
</svg>
