<?xml version="1.0" encoding="UTF-8"?>
<svg width="24" height="24" viewBox="0 0 24 24" fill="none" xmlns="http://www.w3.org/2000/svg">
  <path d="M12 3L12.8817 3.43597C15.0001 4.4835 17.5165 4.4835 19.6349 3.43597L20.5166 3C20.8133 2.85516 21.1566 2.85516 21.4533 3L22.3349 3.43597C22.7552 3.6458 23 4.07657 23 4.54493V14.4551C23 14.9234 22.7552 15.3542 22.3349 15.564L21.4533 16C21.1566 16.1448 20.8133 16.1448 20.5166 16L19.6349 15.564C17.5165 14.5165 15.0001 14.5165 12.8817 15.564L12 16L11.1183 15.564C8.99992 14.5165 6.48351 14.5165 4.36508 15.564L3.48342 16C3.18669 16.1448 2.84336 16.1448 2.54663 16L1.66497 15.564C1.24473 15.3542 1 14.9234 1 14.4551V4.54493C1 4.07657 1.24473 3.6458 1.66497 3.43597L2.54663 3C2.84336 2.85516 3.18669 2.85516 3.48342 3L4.36508 3.43597C6.48351 4.4835 8.99992 4.4835 11.1183 3.43597L12 3Z" fill="white" stroke="white" strokeWidth="1.5" strokeLinecap="round" strokeLinejoin="round"/>
  <path d="M12 3V16" stroke="#1A1A1A" strokeWidth="1.5" strokeLinecap="round"/>
  <path d="M12 19V21" stroke="white" strokeWidth="1.5" strokeLinecap="round"/>
  <path d="M8 20H16" stroke="white" strokeWidth="1.5" strokeLinecap="round"/>
</svg> 