<?xml version="1.0" encoding="UTF-8"?>
<svg width="24" height="24" viewBox="0 0 24 24" fill="none" xmlns="http://www.w3.org/2000/svg">
  <path d="M4 6C4 4.89543 4.89543 4 6 4H18C19.1046 4 20 4.89543 20 6V18C20 19.1046 19.1046 20 18 20H6C4.89543 20 4 19.1046 4 18V6Z" fill="white"/>
  <path d="M8 10L10 12L8 14" stroke="#1A1A1A" strokeWidth="1.5" strokeLinecap="round" strokeLinejoin="round"/>
  <path d="M12 14H16" stroke="#1A1A1A" strokeWidth="1.5" strokeLinecap="round"/>
  <path d="M6 7.5C6 7.22386 6.22386 7 6.5 7H7.5C7.77614 7 8 7.22386 8 7.5V8.5C8 8.77614 7.77614 9 7.5 9H6.5C6.22386 9 6 8.77614 6 8.5V7.5Z" fill="#1A1A1A"/>
  <path d="M9 7.5C9 7.22386 9.22386 7 9.5 7H10.5C10.7761 7 11 7.22386 11 7.5V8.5C11 8.77614 10.7761 9 10.5 9H9.5C9.22386 9 9 8.77614 9 8.5V7.5Z" fill="#1A1A1A"/>
  <path d="M12 7.5C12 7.22386 12.2239 7 12.5 7H13.5C13.7761 7 14 7.22386 14 7.5V8.5C14 8.77614 13.7761 9 13.5 9H12.5C12.2239 9 12 8.77614 12 8.5V7.5Z" fill="#1A1A1A"/>
</svg>
